<?xml version="1.0" encoding="iso-8859-1"?>
<!-- Generator: Adobe Illustrator 16.0.0, SVG Export Plug-In . SVG Version: 6.00 Build 0)  -->
<!DOCTYPE svg PUBLIC "-//W3C//DTD SVG 1.1//EN" "http://www.w3.org/Graphics/SVG/1.1/DTD/svg11.dtd">
<svg width="25" height="20" viewBox="0 0 25 20" fill="currentColor" xmlns="http://www.w3.org/2000/svg"><path d="M2.5 0h20A2.5 2.5 0 0 1 25 2.5v15a2.5 2.5 0 0 1-2.5 2.5h-20A2.5 2.5 0 0 1 0 17.5v-15C0 1.125 1.125 0 2.5 0zm20 4.225V2.5h-20v1.725l10 5 10-5zm0 2.8l-9.438 4.713a1.25 1.25 0 0 1-1.124 0L2.5 7.025V17.5h20V7.025z" fill-rule="nonzero"/></svg>
